P3
48 48
255
254 254 254  254 254 254  254 254 254  254 254 254  254 254 254  254 254 254
254 254 254  254 254 254  254 254 254  254 254 254  254 254 254  254 254 254
254 254 254  254 254 254  254 254 254  254 254 254  254 254 254  254 254 254
254 254 254  254 254 254  254 254 254  254 254 254  254 254 254  254 254 254
254 254 254  254 254 254  254 254 254  254 254 254  254 254 254  254 254 254
254 254 254  254 254 254  254 254 254  254 254 254  254 254 254  254 254 254
254 254 254  254 254 254  254 254 254  254 254 254  254 254 254  254 254 254
254 254 254  254 254 254  254 254 254  254 254 254  254 254 254  254 254 254
254 254 254  254 254 254  254 254 254  254 254 254  254 254 254  254 254 254
254 254 254  254 254 254  254 254 254  254 254 254  254 254 254  254 254 254
254 254 254  254 254 254  254 254 254  254 254 254  254 254 254  254 254 254
254 254 254  254 254 254  254 254 254  254 254 254  254 254 254  254 254 254
254 254 254  254 254 254  254 254 254  254 254 254  254 254 254  254 254 254
254 254 254  254 254 254  254 254 254  254 254 254  254 254 254  254 254 254
254 254 254  254 254 254  254 254 254  254 254 254  254 254 254  254 254 254
254 254 254  254 254 254  254 254 254  254 254 254  254 254 254  254 254 254
254 254 254  254 254 254  254 254 254  254 254 254  254 254 254  254 254 254
254 254 254  254 254 254  254 254 254  254 254 254  254 254 254  254 254 254
254 254 254  254 254 254  254 254 254  254 254 254  254 254 254  254 254 254
254 254 254  254 254 254  254 254 254  254 254 254  254 254 254  254 254 254
254 254 254  254 254 254  254 254 254  254 254 254  254 254 254  254 254 254
254 254 254  254 254 254  254 254 254  254 254 254  254 254 254  254 254 254
254 254 254  254 254 254  254 254 254  254 254 254  254 254 254  254 254 254
254 254 254  254 254 254  254 254 254  254 254 254  254 254 254  254 254 254
254 254 254  254 254 254  254 254 254  254 254 254  254 254 254  254 254 254
254 254 254  254 254 254  254 254 254  254 254 254  254 254 254  254 254 254
254 254 254  254 254 254  254 254 254  254 254 254  254 254 254  254 254 254
254 254 254  254 254 254  254 254 254  254 254 254  254 254 254  254 254 254
254 254 254  254 254 254  254 254 254  254 254 254  254 254 254  254 254 254
254 254 254  254 254 254  254 254 254  254 254 254  254 254 254  254 254 254
254 254 254  254 254 254  254 254 254  254 254 254  254 254 254  254 254 254
254 254 254  254 254 254  254 254 254  254 254 254  254 254 254  254 254 254
254 254 254  254 254 254  254 254 254  254 254 254  254 254 254  254 254 254
254 254 254  254 254 254  254 254 254  254 254 254  254 254 254  254 254 254
254 254 254  254 254 254  254 254 254  254 254 254  254 254 254  254 254 254
254 254 254  254 254 254  254 254 254  254 254 254  254 254 254  254 254 254
254 254 254  254 254 254  254 254 254  254 254 254  254 254 254  254 254 254
254 254 254  254 254 254  254 254 254  254 254 254  254 254 254  254 254 254
254 254 254  254 254 254  254 254 254  254 254 254  254 254 254  254 254 254
254 254 254  254 254 254  254 254 254  254 254 254  254 254 254  254 254 254
254 254 254  254 254 254  254 254 254  254 254 254  254 254 254  254 254 254
254 254 254  254 254 254  254 254 254  254 254 254  254 254 254  254 254 254
254 254 254  254 254 254  254 254 254  254 254 254  254 254 254  254 254 254
254 254 254  254 254 254  254 254 254  254 254 254  254 254 254  222 222 222
250 250 250  254 254 254  254 254 254  254 254 254  254 254 254  254 254 254
254 254 254  254 254 254  254 254 254  254 254 254  254 254 254  254 254 254
254 254 254  254 254 254  254 254 254  254 254 254  254 254 254  254 254 254
254 254 254  254 254 254  254 254 254  254 254 254  254 254 254  254 254 254
254 254 254  254 254 254  254 254 254  254 254 254  254 254 254  254 254 254
254 254 254  254 254 254  254 254 254  206 210 203  138 144 135  114 126 110
107 118 102  147 155 143  246 246 246  254 254 254  254 254 254  254 254 254
254 254 254  254 254 254  254 254 254  254 254 254  174 170 162  98 92 76
77 77 77  246 246 246  254 254 254  254 254 254  254 254 254  254 254 254
254 254 254  254 254 254  254 254 254  254 254 254  254 254 254  254 254 254
254 254 254  254 254 254  254 254 254  254 254 254  254 254 254  254 254 254
254 254 254  254 254 254  254 254 254  254 254 254  254 254 254  254 254 254
254 254 254  254 254 254  254 254 254  254 254 254  254 254 254  254 254 254
254 254 254  254 254 254  182 190 182  101 114 96  114 130 102  138 150 122
129 146 108  101 114 96  101 114 96  182 186 178  254 254 254  254 254 254
254 254 254  254 254 254  254 254 254  254 254 254  126 122 81  42 42 41
82 82 82  238 238 238  254 254 254  254 254 254  254 254 254  254 254 254
254 254 254  254 254 254  254 254 254  254 254 254  254 254 254  254 254 254
254 254 254  254 254 254  254 254 254  254 254 254  254 254 254  254 254 254
254 254 254  254 254 254  254 254 254  254 254 254  254 254 254  254 254 254
254 254 254  254 254 254  254 254 254  254 254 254  254 254 254  254 254 254
254 254 254  242 242 242  99 110 94  107 118 102  134 150 114  138 150 122
128 142 112  141 158 116  130 150 110  101 114 96  182 190 182  254 254 254
254 254 254  254 254 254  254 254 254  226 226 224  98 92 76  22 22 22
190 190 190  254 254 254  254 254 254  254 254 254  254 254 254  254 254 254
254 254 254  254 254 254  254 254 254  254 254 254  254 254 254  254 254 254
254 254 254  254 254 254  254 254 254  254 254 254  254 254 254  254 254 254
254 254 254  254 254 254  254 254 254  254 254 254  254 254 254  254 254 254
254 254 254  254 254 254  254 254 254  254 254 254  254 254 254  254 254 254
254 254 254  106 116 92  106 122 98  129 146 108  120 134 106  114 130 102
112 126 98  110 121 98  112 126 98  112 126 103  99 110 94  182 186 178
254 254 254  254 254 254  254 254 254  162 158 146  30 30 30  63 63 63
254 254 254  254 254 254  254 254 254  254 254 254  254 254 254  254 254 254
254 254 254  254 254 254  254 254 254  254 254 254  254 254 254  254 254 254
254 254 254  254 254 254  254 254 254  254 254 254  254 254 254  254 254 254
254 254 254  254 254 254  254 254 254  254 254 254  254 254 254  254 254 254
254 254 254  254 254 254  254 254 254  254 254 254  254 254 254  254 254 254
130 142 126  101 114 96  139 150 102  114 130 102  118 130 106  122 138 106
150 166 122  141 158 116  150 166 122  150 166 122  129 146 108  99 110 94
142 151 132  254 254 254  254 254 254  126 118 106  30 30 30  190 190 190
254 254 254  254 254 254  254 254 254  254 254 254  254 254 254  254 254 254
254 254 254  254 254 254  254 254 254  254 254 254  254 254 254  254 254 254
254 254 254  254 254 254  254 254 254  254 254 254  254 254 254  254 254 254
254 254 254  254 254 254  254 254 254  254 254 254  254 254 254  254 254 254
254 254 254  254 254 254  254 254 254  254 254 254  254 254 254  222 222 214
101 114 96  129 146 108  114 130 102  122 138 106  146 162 122  114 130 102
122 138 106  112 126 98  96 108 90  96 108 90  99 110 94  96 108 90
96 108 90  130 138 126  254 254 254  104 102 98  42 42 41  254 254 254
254 254 254  254 254 254  210 210 208  190 190 154  190 190 190  190 190 190
203 202 190  254 254 254  254 254 254  254 254 254  254 254 254  254 254 254
254 254 254  254 254 254  254 254 254  254 254 254  254 254 254  254 254 254
254 254 254  254 254 254  254 254 254  254 254 254  254 254 254  254 254 254
254 254 254  254 254 254  254 254 254  254 254 254  254 254 254  121 133 114
114 130 102  118 130 106  130 150 110  106 122 98  146 162 122  107 118 102
101 114 96  107 118 102  130 138 126  201 202 200  234 234 233  222 222 222
138 144 135  96 108 90  130 138 126  106 102 90  118 118 118  254 254 254
206 206 190  150 146 98  142 133 91  140 126 88  134 126 86  126 122 81
120 118 76  114 114 74  130 130 102  154 154 134  226 226 224  254 254 254
254 254 254  254 254 254  254 254 254  254 254 254  254 254 254  254 254 254
254 254 254  254 254 254  254 254 254  254 254 254  254 254 254  254 254 254
254 254 254  254 254 254  254 254 254  254 254 254  203 206 203  107 118 102
118 130 106  122 138 106  134 150 114  114 126 110  138 144 135  138 144 135
182 182 182  246 246 246  254 254 254  254 254 254  254 254 254  254 254 254
254 254 254  182 186 178  114 122 110  118 118 118  138 144 135  182 172 138
150 142 106  154 142 97  150 146 98  150 142 106  148 142 96  147 134 91
140 126 88  130 125 83  120 118 76  122 114 78  104 106 68  122 126 98
203 202 190  254 254 254  254 254 254  254 254 254  254 254 254  254 254 254
254 254 254  254 254 254  254 254 254  254 254 254  254 254 254  254 254 254
254 254 254  254 254 254  254 254 254  254 254 254  110 121 98  120 134 106
141 158 116  121 133 114  110 121 98  118 130 106  146 162 122  234 234 233
254 254 254  217 218 209  170 165 138  137 130 86  147 134 91  147 134 91
137 130 86  166 158 108  170 165 138  158 150 118  150 142 106  161 150 103
158 158 109  165 154 107  166 158 108  165 154 107  161 150 103  158 146 101
154 138 96  147 134 91  137 130 86  126 126 86  114 114 74  102 102 65
90 94 59  127 133 114  226 226 224  254 254 254  254 254 254  254 254 254
254 254 254  254 254 254  254 254 254  254 254 254  254 254 254  254 254 254
254 254 254  254 254 254  254 254 254  182 190 174  120 134 106  128 142 112
107 118 102  112 122 106  147 155 143  230 230 229  254 254 254  230 230 229
166 155 123  147 134 91  154 142 97  166 150 104  165 154 107  165 154 107
165 154 107  165 154 107  170 158 112  170 158 112  172 162 114  174 166 116
172 162 114  181 170 123  172 162 114  166 158 108  165 154 107  161 150 103
158 146 101  154 142 97  138 138 92  137 130 86  130 125 83  114 114 74
102 102 65  90 94 59  98 102 64  203 206 203  254 254 254  254 254 254
254 254 254  254 254 254  254 254 254  254 254 254  254 254 254  254 254 254
254 254 254  254 254 254  254 254 254  138 150 122  118 130 106  112 122 106
182 186 178  242 242 242  254 254 254  254 254 254  230 230 229  150 142 106
154 138 96  166 150 104  166 155 123  170 158 112  186 174 130  188 178 132
178 166 120  178 166 120  181 170 123  181 170 123  181 170 123  186 174 130
178 174 124  182 174 126  182 174 126  172 162 114  170 158 112  165 154 107
166 150 104  158 146 101  154 138 96  142 133 91  130 125 83  114 114 74
104 106 68  98 98 62  78 82 50  87 90 56  182 186 178  254 254 254
254 254 254  254 254 254  254 254 254  254 254 254  254 254 254  254 254 254
254 254 254  254 254 254  206 210 203  118 130 106  198 198 197  254 254 254
254 254 254  254 254 254  254 254 254  254 254 254  154 138 96  158 146 101
170 158 112  186 174 130  204 197 166  223 218 197  217 210 186  217 210 186
194 186 141  188 178 132  188 178 132  188 178 132  188 178 132  186 182 135
188 178 132  182 178 130  181 170 123  170 170 116  172 162 114  170 158 112
166 150 104  166 150 104  154 142 97  147 138 93  137 130 86  120 118 76
104 106 68  98 98 62  82 86 54  73 82 49  78 82 50  230 230 229
254 254 254  254 254 254  254 254 254  254 254 254  254 254 254  254 254 254
254 254 254  254 254 254  206 210 203  203 206 203  254 254 254  254 254 254
254 254 254  254 254 254  254 254 254  182 178 154  158 146 101  170 158 112
202 194 157  223 218 197  234 234 233  226 222 203  217 210 186  211 207 175
194 182 139  194 182 139  194 182 139  190 182 137  194 182 139  190 182 137
186 182 135  182 178 130  182 174 126  174 170 118  172 162 114  166 158 108
165 154 107  161 150 103  161 150 103  147 138 93  137 130 86  130 125 83
114 114 74  102 102 65  87 90 56  78 82 50  78 82 50  114 122 90
254 254 254  254 254 254  254 254 254  254 254 254  254 254 254  254 254 254
254 254 254  254 254 254  254 254 254  254 254 254  254 254 254  254 254 254
254 254 254  254 254 254  218 218 218  154 146 100  166 155 123  194 182 139
220 214 192  230 226 210  230 226 210  220 214 192  209 202 171  198 190 152
194 186 141  198 190 152  194 186 141  194 182 139  190 182 137  190 182 137
186 182 135  188 178 132  178 174 124  170 170 116  170 166 115  163 162 109
166 158 108  165 154 107  158 146 101  154 142 97  147 138 93  140 126 88
120 118 76  104 106 68  90 94 59  78 82 50  78 82 50  87 90 56
182 186 178  254 254 254  254 254 254  254 254 254  254 254 254  254 254 254
254 254 254  254 254 254  254 254 254  254 254 254  254 254 254  254 254 254
254 254 254  254 254 254  166 155 123  161 150 103  172 162 114  209 202 171
223 218 197  230 226 210  220 214 192  226 222 203  198 190 152  198 190 152
209 202 171  198 194 156  194 190 145  194 186 141  194 186 141  194 186 141
186 182 135  182 178 130  178 174 124  170 170 116  170 166 115  163 162 109
166 158 108  154 154 103  158 146 101  148 142 96  142 133 91  140 126 88
120 122 79  114 114 74  94 102 63  82 86 54  78 82 50  78 86 54
110 114 74  254 254 254  254 254 254  254 254 254  254 254 254  254 254 254
254 254 254  254 254 254  254 254 254  254 254 254  254 254 254  254 254 254
254 254 254  218 214 210  150 142 106  170 158 112  186 174 130  220 214 192
223 218 197  220 214 192  223 218 197  206 198 162  202 194 157  206 198 162
206 198 162  194 186 141  194 186 141  194 186 141  190 186 138  186 182 135
186 182 135  182 178 130  174 174 120  170 170 116  163 162 109  166 158 108
158 154 105  154 150 101  154 146 100  148 142 96  142 133 91  134 126 86
126 122 81  114 114 74  98 98 62  82 86 54  73 82 49  78 82 50
74 82 55  254 254 254  254 254 254  254 254 254  254 254 254  254 254 254
254 254 254  254 254 254  254 254 254  254 254 254  254 254 254  254 254 254
254 254 254  170 165 138  154 142 97  170 158 112  202 194 157  223 218 197
223 218 197  220 214 192  209 202 171  211 207 175  202 194 157  198 194 156
198 194 156  194 190 145  194 186 141  194 186 141  190 186 138  186 182 135
182 178 130  182 174 126  174 170 118  170 166 115  166 166 112  158 162 106
158 154 105  154 150 101  154 142 97  148 142 96  135 134 90  140 126 88
120 118 76  110 118 73  98 102 64  82 86 54  73 82 49  73 82 49
73 82 49  254 254 254  254 254 254  254 254 254  254 254 254  254 254 254
254 254 254  254 254 254  254 254 254  254 254 254  254 254 254  254 254 254
254 254 254  138 138 92  158 154 105  170 166 115  202 198 162  217 210 186
217 210 186  209 202 171  211 207 175  198 194 156  198 190 152  198 194 156
194 190 145  194 190 145  190 186 138  190 186 138  190 182 137  186 182 135
182 178 130  174 174 120  174 170 118  166 170 115  166 166 112  163 162 109
158 154 105  150 146 98  150 146 98  138 138 92  137 130 86  126 122 81
120 122 79  111 110 71  98 102 64  82 86 54  73 82 49  66 74 45
69 78 47  254 254 254  254 254 254  254 254 254  254 254 254  254 254 254
254 254 254  254 254 254  254 254 254  254 254 254  254 254 254  254 254 254
230 230 229  147 138 93  158 154 105  170 166 115  203 202 190  211 207 175
206 198 162  206 198 162  202 198 162  199 194 150  198 190 152  199 194 150
190 186 144  194 186 141  190 186 138  190 186 138  186 182 135  182 178 130
174 174 120  174 170 118  170 166 115  166 166 112  163 162 109  153 158 104
154 154 103  146 150 98  148 142 96  142 133 91  137 130 86  130 125 83
120 118 76  110 114 74  98 102 64  82 86 54  74 78 50  70 74 46
69 78 47  254 254 254  254 254 254  254 254 254  254 254 254  254 254 254
254 254 254  254 254 254  254 254 254  254 254 254  254 254 254  254 254 254
203 202 190  139 142 94  158 150 118  172 162 114  206 198 162  206 198 162
198 194 156  198 194 156  194 190 150  190 186 144  194 190 150  194 186 141
190 186 138  190 186 138  186 182 135  186 182 135  182 178 130  182 174 126
174 174 120  170 170 116  166 166 112  166 166 112  158 162 106  158 154 105
146 150 98  150 146 98  147 138 93  135 134 90  137 130 86  126 122 81
114 118 76  104 110 69  89 98 60  82 86 54  73 82 49  66 74 45
70 74 46  254 254 254  254 254 254  254 254 254  254 254 254  254 254 254
254 254 254  254 254 254  254 254 254  254 254 254  254 254 254  254 254 254
203 202 190  148 142 96  158 154 105  170 166 115  194 190 150  194 190 150
194 190 150  198 194 156  190 186 138  190 186 144  190 186 144  190 186 144
186 182 135  186 182 135  178 178 128  182 178 130  178 178 128  174 174 120
170 170 116  170 170 116  166 166 112  163 162 109  153 158 104  154 154 103
150 146 98  142 146 96  138 138 92  134 138 90  130 130 87  120 122 79
114 114 74  104 106 68  87 90 56  73 82 49  69 78 47  66 74 45
110 114 90  254 254 254  254 254 254  254 254 254  254 254 254  254 254 254
254 254 254  254 254 254  254 254 254  254 254 254  254 254 254  254 254 254
203 202 190  138 138 92  154 154 103  170 165 138  186 182 142  190 190 154
194 190 150  186 182 142  190 186 144  186 182 135  186 182 135  186 182 135
186 182 135  178 174 124  182 178 130  178 178 128  174 174 120  174 174 120
170 170 116  166 166 112  166 166 112  158 162 106  158 154 105  150 154 101
146 150 98  134 142 90  138 138 92  135 134 90  122 126 82  120 122 79
111 110 71  94 98 61  82 90 57  74 78 50  69 78 47  66 70 44
142 151 132  254 254 254  254 254 254  254 254 254  254 254 254  254 254 254
254 254 254  254 254 254  254 254 254  254 254 254  254 254 254  254 254 254
218 214 210  138 138 92  150 150 102  163 162 109  178 174 124  190 186 144
190 186 144  178 178 128  178 178 128  178 178 128  182 178 130  178 178 128
178 178 128  178 178 128  174 174 120  174 174 120  174 170 118  174 174 120
166 166 112  166 166 112  158 162 106  153 158 104  146 150 98  146 146 97
148 142 96  134 142 90  135 134 90  130 130 87  122 126 82  114 118 76
104 106 68  90 94 59  78 82 50  69 78 47  62 70 42  62 70 42
194 196 188  254 254 254  254 254 254  254 254 254  254 254 254  254 254 254
254 254 254  254 254 254  254 254 254  254 254 254  254 254 254  254 254 254
254 254 254  135 134 90  148 142 96  158 158 109  164 166 134  174 174 127
186 182 142  178 178 128  172 170 126  174 174 127  174 174 127  178 174 124
174 174 120  174 170 118  174 174 120  174 174 120  174 174 120  170 170 116
166 170 115  162 166 111  158 162 106  154 154 103  146 146 97  142 146 96
134 142 90  135 134 90  126 134 85  126 130 85  120 122 79  106 114 70
94 98 61  82 90 57  78 86 54  70 74 46  66 70 44  78 86 54
254 254 254  254 254 254  254 254 254  254 254 254  254 254 254  254 254 254
254 254 254  254 254 254  254 254 254  254 254 254  254 254 254  254 254 254
254 254 254  164 166 134  138 138 92  150 150 102  158 158 109  170 165 138
172 170 126  174 174 127  170 170 116  170 170 116  170 170 116  174 170 118
174 174 120  174 174 120  174 174 120  170 170 116  166 170 115  158 162 106
162 166 111  153 158 104  150 154 101  146 150 98  142 146 96  134 142 90
134 138 90  126 134 85  126 130 85  122 126 82  106 114 70  104 110 69
94 98 61  82 86 54  66 74 45  62 74 44  62 70 42  142 151 132
254 254 254  254 254 254  254 254 254  254 254 254  254 254 254  254 254 254
254 254 254  254 254 254  254 254 254  254 254 254  254 254 254  254 254 254
254 254 254  214 214 213  130 130 87  146 146 97  150 154 101  158 162 106
163 162 115  163 162 115  163 162 115  166 166 112  170 170 116  166 170 115
166 166 112  166 166 112  166 170 115  166 170 115  162 166 111  166 166 112
153 158 104  153 158 104  150 154 101  146 150 98  142 146 96  138 138 92
126 134 85  130 130 87  122 126 82  114 122 77  104 106 68  98 98 62
78 86 54  73 82 49  66 74 45  62 74 44  62 70 42  222 222 214
254 254 254  254 254 254  254 254 254  254 254 254  254 254 254  254 254 254
254 254 254  254 254 254  254 254 254  254 254 254  254 254 254  254 254 254
254 254 254  254 254 254  138 138 92  134 138 90  139 142 94  150 154 101
154 154 103  158 162 106  158 158 109  158 162 106  158 162 106  162 166 111
162 166 111  166 166 112  162 166 111  163 162 109  158 162 106  153 158 104
153 158 104  150 154 101  146 150 98  138 146 95  134 142 90  134 142 90
126 130 85  120 122 79  110 118 73  111 110 71  98 102 64  89 98 60
78 86 54  69 78 47  62 66 42  62 70 42  130 130 102  254 254 254
254 254 254  254 254 254  254 254 254  254 254 254  254 254 254  254 254 254
254 254 254  254 254 254  254 254 254  254 254 254  254 254 254  254 254 254
254 254 254  254 254 254  218 218 218  135 134 90  138 138 92  139 142 94
146 150 98  150 150 102  154 154 103  158 158 109  158 158 109  153 158 104
158 162 106  158 162 106  158 162 106  158 162 106  153 158 104  153 158 104
146 146 97  146 150 98  134 142 90  130 138 89  126 134 85  122 130 83
118 126 81  110 118 73  104 110 69  98 106 67  89 98 60  82 90 57
73 82 49  66 74 45  62 66 42  62 66 42  222 222 214  254 254 254
254 254 254  254 254 254  254 254 254  254 254 254  254 254 254  254 254 254
254 254 254  254 254 254  254 254 254  254 254 254  254 254 254  254 254 254
254 254 254  254 254 254  254 254 254  164 166 134  126 130 85  135 134 90
134 138 90  138 146 95  139 150 102  146 150 98  150 154 101  154 154 103
150 154 101  150 154 101  153 158 104  150 154 101  146 150 98  139 150 102
134 142 90  134 142 90  130 138 89  122 130 83  122 126 82  114 118 76
106 114 70  104 110 69  94 102 63  98 102 64  89 98 60  82 90 57
73 82 49  62 70 42  62 70 42  107 118 102  222 222 214  230 230 229
246 246 246  254 254 254  254 254 254  254 254 254  254 254 254  254 254 254
254 254 254  254 254 254  254 254 254  254 254 254  254 254 254  254 254 254
254 254 254  254 254 254  254 254 254  234 234 233  135 134 90  126 130 85
126 130 85  135 134 90  138 138 92  139 142 94  138 146 95  138 146 95
138 146 95  138 146 95  138 146 95  138 146 95  134 142 90  134 142 90
130 138 89  126 130 85  122 130 83  118 126 81  114 122 77  110 118 73
106 114 70  104 110 69  98 102 64  89 98 60  86 94 57  78 86 54
66 74 45  62 70 42  69 78 47  134 134 132  154 154 154  170 170 170
190 190 190  214 214 213  238 238 238  250 250 250  254 254 254  254 254 254
254 254 254  254 254 254  254 254 254  254 254 254  254 254 254  254 254 254
254 254 254  254 254 254  254 254 254  254 254 254  234 234 233  130 134 89
118 126 81  126 130 85  126 130 85  130 130 87  130 134 89  134 138 90
126 134 85  126 134 85  122 130 83  126 134 85  122 130 83  126 130 85
122 130 83  114 122 77  110 118 73  106 114 70  110 118 73  98 106 67
104 106 68  98 106 67  90 102 64  89 98 60  82 90 57  74 78 50
62 70 42  62 70 42  38 42 26  2 2 2  22 22 22  70 70 70
114 114 114  150 150 150  178 178 178  214 214 213  238 238 238  250 250 250
254 254 254  254 254 254  254 254 254  254 254 254  254 254 254  254 254 254
254 254 254  254 254 254  254 254 254  254 254 254  254 254 254  214 214 213
130 134 89  114 118 76  120 122 79  118 126 81  120 122 79  120 122 79
122 126 82  122 126 82  118 126 81  120 122 79  110 118 73  110 118 73
104 110 69  106 114 70  104 106 68  104 106 68  98 106 67  94 102 63
90 102 64  94 102 63  90 98 66  86 94 62  78 86 54  69 78 47
66 74 45  49 55 34  2 2 2  2 2 2  2 2 2  2 2 2
6 6 6  42 42 41  106 106 106  166 166 166  198 198 197  230 230 229
254 254 254  254 254 254  254 254 254  254 254 254  254 254 254  254 254 254
254 254 254  254 254 254  254 254 254  254 254 254  254 254 254  254 254 254
230 230 229  120 122 79  106 114 70  106 114 70  106 114 70  106 114 70
106 114 70  106 114 70  104 110 69  104 110 69  98 106 67  98 106 67
94 102 63  94 102 63  90 102 64  90 102 64  94 102 63  89 98 60
89 98 60  86 94 57  86 94 62  78 86 54  73 82 49  66 74 45
56 64 40  2 2 2  2 2 2  2 2 2  2 2 2  2 2 2
2 2 2  10 10 10  15 18 12  90 90 90  166 166 166  210 210 208
254 254 254  254 254 254  254 254 254  254 254 254  254 254 254  254 254 254
254 254 254  254 254 254  254 254 254  254 254 254  254 254 254  254 254 254
246 246 246  206 210 203  110 118 73  104 110 69  104 110 69  98 106 67
104 106 68  98 102 64  98 106 67  94 98 61  90 94 59  86 94 57
86 94 57  86 94 57  89 98 60  86 94 57  89 98 60  89 98 60
86 94 62  86 94 62  78 86 54  73 82 49  73 82 49  62 66 42
2 2 2  2 2 2  2 2 2  2 2 2  2 2 2  2 2 2
2 2 2  2 2 2  15 18 12  63 63 63  150 150 150  201 202 200
254 254 254  254 254 254  254 254 254  254 254 254  254 254 254  254 254 254
254 254 254  254 254 254  254 254 254  254 254 254  254 254 254  254 254 254
238 238 238  210 210 208  118 118 118  49 55 34  94 98 61  89 98 60
89 98 60  89 98 60  86 94 57  86 94 57  89 98 60  86 94 57
89 98 60  82 90 57  89 98 60  86 94 57  86 94 57  86 94 57
86 94 57  86 94 62  78 86 54  69 78 47  46 46 46  2 2 2
2 2 2  2 2 2  2 2 2  2 2 2  2 2 2  2 2 2
2 2 2  2 2 2  63 63 63  114 114 114  162 162 162  214 214 213
254 254 254  254 254 254  254 254 254  254 254 254  254 254 254  254 254 254
254 254 254  254 254 254  254 254 254  254 254 254  254 254 254  254 254 254
238 238 238  201 202 200  158 158 158  38 42 26  14 14 13  56 64 40
86 94 57  86 94 57  82 90 57  62 70 42  14 14 13  2 2 2
2 2 2  15 18 12  49 55 34  66 74 45  73 82 49  82 90 57
82 90 57  73 82 49  49 55 34  15 18 12  2 2 2  2 2 2
2 2 2  2 2 2  2 2 2  2 2 2  2 2 2  2 2 2
10 10 10  82 82 82  118 118 118  154 154 154  198 198 197  234 234 233
254 254 254  254 254 254  254 254 254  254 254 254  254 254 254  254 254 254
254 254 254  254 254 254  254 254 254  254 254 254  254 254 254  254 254 254
246 246 246  218 218 218  178 178 178  123 126 122  56 56 56  10 10 10
2 2 2  26 26 26  26 30 18  2 2 2  2 2 2  2 2 2
2 2 2  2 2 2  2 2 2  2 2 2  2 2 2  2 2 2
2 2 2  2 2 2  2 2 2  2 2 2  2 2 2  2 2 2
2 2 2  2 2 2  2 2 2  2 2 2  10 10 10  70 70 70
110 110 110  134 134 132  166 166 166  198 198 197  234 234 233  250 250 250
254 254 254  254 254 254  254 254 254  254 254 254  254 254 254  254 254 254
254 254 254  254 254 254  254 254 254  254 254 254  254 254 254  254 254 254
254 254 254  238 238 238  218 214 210  178 178 178  150 150 150  122 122 122
70 70 70  26 30 18  10 10 10  2 2 2  2 2 2  2 2 2
2 2 2  2 2 2  2 2 2  2 2 2  2 2 2  2 2 2
2 2 2  2 2 2  2 2 2  2 2 2  2 2 2  2 2 2
2 2 2  10 10 10  42 42 41  82 82 82  114 114 114  138 138 138
162 162 162  194 194 194  218 218 218  238 238 238  250 250 250  254 254 254
254 254 254  254 254 254  254 254 254  254 254 254  254 254 254  254 254 254
254 254 254  254 254 254  254 254 254  254 254 254  254 254 254  254 254 254
254 254 254  254 254 254  246 246 246  230 230 229  214 214 213  190 190 190
166 166 166  138 138 138  114 114 114  90 90 90  56 56 56  46 46 46
46 46 46  42 42 41  42 42 41  30 30 30  26 26 26  22 22 22
10 10 10  10 10 10  15 18 12  30 30 30  56 56 56  82 82 82
106 106 106  122 122 122  123 126 122  150 150 150  174 174 174  198 198 197
222 222 222  238 238 238  250 250 250  254 254 254  254 254 254  254 254 254
254 254 254  254 254 254  254 254 254  254 254 254  254 254 254  254 254 254
254 254 254  254 254 254  254 254 254  254 254 254  254 254 254  254 254 254
254 254 254  254 254 254  254 254 254  254 254 254  250 250 250  242 242 242
226 226 224  214 214 213  201 202 200  178 178 178  162 162 162  154 154 154
150 150 150  158 158 158  162 162 162  162 162 162  158 158 158  158 158 158
166 166 166  166 166 166  178 178 178  174 174 174  174 174 174  186 186 186
182 182 182  190 190 190  194 194 194  210 210 208  226 226 224  242 242 242
250 250 250  254 254 254  254 254 254  254 254 254  254 254 254  254 254 254
254 254 254  254 254 254  254 254 254  254 254 254  254 254 254  254 254 254
254 254 254  254 254 254  254 254 254  254 254 254  254 254 254  254 254 254
254 254 254  254 254 254  254 254 254  254 254 254  254 254 254  254 254 254
254 254 254  250 250 250  242 242 242  242 242 242  230 230 229  222 222 222
218 218 218  226 226 224  222 222 222  222 222 222  222 222 222  218 218 218
226 226 224  226 226 224  234 234 233  234 234 233  234 234 233  238 238 238
238 238 238  238 238 238  246 246 246  250 250 250  254 254 254  254 254 254
254 254 254  254 254 254  254 254 254  254 254 254  254 254 254  254 254 254
254 254 254  254 254 254  254 254 254  254 254 254  254 254 254  254 254 254
254 254 254  254 254 254  254 254 254  254 254 254  254 254 254  254 254 254
254 254 254  254 254 254  254 254 254  254 254 254  254 254 254  254 254 254
254 254 254  254 254 254  254 254 254  254 254 254  254 254 254  254 254 254
254 254 254  250 250 250  250 250 250  246 246 246  250 250 250  250 250 250
254 254 254  254 254 254  254 254 254  254 254 254  254 254 254  254 254 254
254 254 254  254 254 254  254 254 254  254 254 254  254 254 254  254 254 254
254 254 254  254 254 254  254 254 254  254 254 254  254 254 254  254 254 254
