P3
3 1
255
100 75 50
75 100 50
50 75 100
