P3
3 3
255
255 0 0 255 127 0 255 127 127
0 255 0 127 255 0 127 255 127
0 0 255 127 0 255 127 127 255 
